<svg width="264" height="189" viewBox="0 0 264 189" fill="none"
  xmlns="http://www.w3.org/2000/svg">
  <path d="M2 173V2H164.5L183.5 21H262V187H65.5L51.5 173H2Z" stroke="#DFFF00" stroke-width="3"/>
  <path d="M8.5 165V9H160.5L178.5 28H254V181H68.5L52.5 165H8.5Z" fill="#979000" fill-opacity="0.6"/>
  <path d="M61.8914 61H52.3714V47.4H60.4914L60.8914 49.44H54.9514V53.1H58.5914L59.0114 55.16H54.9514V58.98H61.4714L61.8914 61ZM68.753 50.96L66.973 55.7H70.573L68.753 50.96ZM69.913 47.4L75.193 60.64L72.593 61L71.373 57.8H66.213L65.013 61H62.413L67.713 47.4H69.913ZM81.1803 49.56H79.5803V53.72H81.2203C81.9936 53.72 82.6336 53.5667 83.1403 53.26C83.647 52.94 83.9003 52.42 83.9003 51.7C83.9003 50.94 83.6603 50.3933 83.1803 50.06C82.7003 49.7267 82.0336 49.56 81.1803 49.56ZM84.9003 61L82.0203 55.8C81.8736 55.8133 81.7203 55.8267 81.5603 55.84C81.4003 55.84 81.2403 55.84 81.0803 55.84H79.5803V61H77.0003V47.4H81.2603C82.7403 47.4 84.007 47.74 85.0603 48.42C86.1136 49.1 86.6403 50.1533 86.6403 51.58C86.6403 52.42 86.4203 53.1467 85.9803 53.76C85.5536 54.36 85.0003 54.8267 84.3203 55.16L87.6603 61H84.9003ZM101.019 47.4V61H98.4194L92.1194 51.9V61H89.5394V47.4H92.1194L98.4194 56.48V47.4H101.019ZM114.07 61H109.11V47.4H114.15C116.243 47.4 117.796 48.0333 118.81 49.3C119.823 50.5667 120.33 52.1733 120.33 54.12C120.33 56.2267 119.783 57.9 118.69 59.14C117.596 60.38 116.056 61 114.07 61ZM114.17 49.6H111.69V58.82H114.03C115.123 58.82 115.996 58.46 116.65 57.74C117.316 57.02 117.65 55.8133 117.65 54.12C117.65 52.7067 117.37 51.6 116.81 50.8C116.25 50 115.37 49.6 114.17 49.6ZM125.752 47.4V61H123.172V47.4H125.752ZM132.83 61L127.55 47.76L130.11 47.4L133.97 57.46L137.71 47.4H140.33L135.03 61H132.83ZM144.717 47.4V61H142.137V47.4H144.717ZM153.035 61H148.075V47.4H153.115C155.208 47.4 156.761 48.0333 157.775 49.3C158.788 50.5667 159.295 52.1733 159.295 54.12C159.295 56.2267 158.748 57.9 157.655 59.14C156.561 60.38 155.021 61 153.035 61ZM153.135 49.6H150.655V58.82H152.995C154.088 58.82 154.961 58.46 155.615 57.74C156.281 57.02 156.615 55.8133 156.615 54.12C156.615 52.7067 156.335 51.6 155.775 50.8C155.215 50 154.335 49.6 153.135 49.6ZM171.657 61H162.137V47.4H170.257L170.657 49.44H164.717V53.1H168.357L168.777 55.16H164.717V58.98H171.237L171.657 61ZM185.219 47.4V61H182.619L176.319 51.9V61H173.739V47.4H176.319L182.619 56.48V47.4H185.219ZM193.542 61H188.582V47.4H193.622C195.716 47.4 197.269 48.0333 198.282 49.3C199.296 50.5667 199.802 52.1733 199.802 54.12C199.802 56.2267 199.256 57.9 198.162 59.14C197.069 60.38 195.529 61 193.542 61ZM193.642 49.6H191.162V58.82H193.502C194.596 58.82 195.469 58.46 196.122 57.74C196.789 57.02 197.122 55.8133 197.122 54.12C197.122 52.7067 196.842 51.6 196.282 50.8C195.722 50 194.842 49.6 193.642 49.6ZM202.625 58C203.038 58.2133 203.565 58.4267 204.205 58.64C204.845 58.8533 205.452 58.96 206.025 58.96C206.838 58.96 207.445 58.8333 207.845 58.58C208.258 58.3267 208.465 57.96 208.465 57.48C208.465 57.0267 208.192 56.6267 207.645 56.28C207.112 55.92 206.518 55.5733 205.865 55.24C204.905 54.7467 203.985 54.1733 203.105 53.52C202.238 52.8533 201.805 51.92 201.805 50.72C201.805 49.6933 202.212 48.8333 203.025 48.14C203.838 47.4333 204.992 47.08 206.485 47.08C207.165 47.08 207.845 47.1867 208.525 47.4C209.205 47.6133 209.805 47.8467 210.325 48.1L209.465 50.18C209.052 49.98 208.605 49.7933 208.125 49.62C207.645 49.4333 207.112 49.34 206.525 49.34C205.952 49.34 205.465 49.4533 205.065 49.68C204.678 49.9067 204.485 50.2533 204.485 50.72C204.485 51.2133 204.718 51.6267 205.185 51.96C205.665 52.28 206.238 52.6067 206.905 52.94L207.045 53.02C208.005 53.5133 208.925 54.1 209.805 54.78C210.698 55.4467 211.145 56.36 211.145 57.52C211.145 58.6 210.705 59.4933 209.825 60.2C208.958 60.9067 207.705 61.26 206.065 61.26C205.492 61.26 204.752 61.1333 203.845 60.88C202.952 60.6267 202.352 60.3667 202.045 60.1L202.625 58Z" fill="white"/>
  <path d="M51.7733 138C52.1866 138.213 52.7133 138.427 53.3533 138.64C53.9933 138.853 54.5999 138.96 55.1733 138.96C55.9866 138.96 56.5933 138.833 56.9933 138.58C57.4066 138.327 57.6133 137.96 57.6133 137.48C57.6133 137.027 57.3399 136.627 56.7933 136.28C56.2599 135.92 55.6666 135.573 55.0133 135.24C54.0533 134.747 53.1333 134.173 52.2533 133.52C51.3866 132.853 50.9533 131.92 50.9533 130.72C50.9533 129.693 51.3599 128.833 52.1733 128.14C52.9866 127.433 54.1399 127.08 55.6333 127.08C56.3133 127.08 56.9933 127.187 57.6733 127.4C58.3533 127.613 58.9533 127.847 59.4733 128.1L58.6133 130.18C58.1999 129.98 57.7533 129.793 57.2733 129.62C56.7933 129.433 56.2599 129.34 55.6733 129.34C55.0999 129.34 54.6133 129.453 54.2133 129.68C53.8266 129.907 53.6333 130.253 53.6333 130.72C53.6333 131.213 53.8666 131.627 54.3333 131.96C54.8133 132.28 55.3866 132.607 56.0533 132.94L56.1933 133.02C57.1533 133.513 58.0733 134.1 58.9533 134.78C59.8466 135.447 60.2933 136.36 60.2933 137.52C60.2933 138.6 59.8533 139.493 58.9733 140.2C58.1066 140.907 56.8533 141.26 55.2133 141.26C54.6399 141.26 53.8999 141.133 52.9933 140.88C52.0999 140.627 51.4999 140.367 51.1933 140.1L51.7733 138ZM72.3484 141H62.8284V127.4H70.9484L71.3484 129.44H65.4084V133.1H69.0484L69.4684 135.16H65.4084V138.98H71.9284L72.3484 141ZM83.41 141H74.43V127.4H77.01V138.98H83.01L83.41 141ZM94.2694 141H85.2894V127.4H87.8694V138.98H93.8694L94.2694 141ZM105.955 127.4C107.275 127.4 108.349 127.693 109.175 128.28C110.002 128.853 110.415 129.827 110.415 131.2C110.415 131.707 110.295 132.167 110.055 132.58C109.829 132.98 109.529 133.327 109.155 133.62C109.769 133.94 110.269 134.373 110.655 134.92C111.055 135.467 111.255 136.16 111.255 137C111.255 138.253 110.815 139.233 109.935 139.94C109.069 140.647 107.909 141 106.455 141H100.875V127.4H105.955ZM105.575 129.56H103.455V132.94H105.375C106.095 132.94 106.655 132.807 107.055 132.54C107.469 132.26 107.675 131.827 107.675 131.24C107.675 130.6 107.489 130.16 107.115 129.92C106.742 129.68 106.229 129.56 105.575 129.56ZM106.435 135.04H103.455V138.86H106.255C106.949 138.86 107.502 138.7 107.915 138.38C108.342 138.06 108.555 137.607 108.555 137.02C108.555 136.38 108.362 135.893 107.975 135.56C107.589 135.213 107.075 135.04 106.435 135.04ZM118.683 130.96L116.903 135.7H120.503L118.683 130.96ZM119.843 127.4L125.123 140.64L122.523 141L121.303 137.8H116.143L114.943 141H112.343L117.643 127.4H119.843ZM135.35 129.86C134.71 129.66 134.203 129.52 133.83 129.44C133.457 129.347 133.003 129.3 132.47 129.3C131.39 129.3 130.557 129.74 129.97 130.62C129.383 131.5 129.09 132.707 129.09 134.24C129.09 135.56 129.337 136.7 129.83 137.66C130.323 138.62 131.15 139.1 132.31 139.1C132.883 139.1 133.417 139.04 133.91 138.92C134.417 138.8 134.877 138.653 135.29 138.48L136.27 140.4C135.75 140.667 135.123 140.88 134.39 141.04C133.657 141.2 133.01 141.28 132.45 141.28C130.33 141.28 128.79 140.6 127.83 139.24C126.87 137.88 126.39 136.22 126.39 134.26C126.39 132.167 126.917 130.453 127.97 129.12C129.037 127.787 130.563 127.12 132.55 127.12C132.95 127.12 133.503 127.187 134.21 127.32C134.917 127.453 135.563 127.68 136.15 128L135.35 129.86ZM141.125 127.4V133.1L146.225 127.1L148.145 128.58L144.105 133.26L149.785 141H146.565L142.405 135.24L141.125 136.74V141H138.525V127.4H141.125ZM160.968 130.96L159.188 135.7H162.788L160.968 130.96ZM162.128 127.4L167.408 140.64L164.808 141L163.588 137.8H158.428L157.228 141H154.628L159.928 127.4H162.128ZM180.695 127.4V141H178.095L171.795 131.9V141H169.215V127.4H171.795L178.095 136.48V127.4H180.695ZM187.059 141V135.7L182.499 127.74L185.179 127.4L188.339 133.08L191.639 127.4H194.379L189.659 135.8V141H187.059ZM194.608 127.4H205.608L206.028 129.44H201.368V141H198.748V129.44H194.608V127.4ZM210.389 127.4V141H207.809V127.4H210.389ZM219.586 136.88L216.326 132.7V141H213.746V127.4H215.386L219.986 133.68L224.166 127.4H225.746V141H223.126V133.16L220.586 136.74L219.586 136.88ZM238.598 141H229.078V127.4H237.198L237.598 129.44H231.658V133.1H235.298L235.718 135.16H231.658V138.98H238.178L238.598 141Z" fill="white"/>
  <path d="M63.5 91L60.28 81.28L57.18 91H54.88L50.12 77.76L52.68 77.4L56.06 87.3L59.12 77.4H61.54L64.8 87.28L67.98 77.4H70.6L65.82 91H63.5ZM74.9631 77.4V91H72.3831V77.4H74.9631ZM89.8006 77.4V91H87.2006L80.9006 81.9V91H78.3206V77.4H80.9006L87.2006 86.48V77.4H89.8006ZM106.871 91H97.8909V77.4H100.471V88.98H106.471L106.871 91ZM113.53 80.96L111.75 85.7H115.35L113.53 80.96ZM114.69 77.4L119.97 90.64L117.37 91L116.15 87.8H110.99L109.79 91H107.19L112.49 77.4H114.69ZM120.218 77.4H131.218L131.638 79.44H126.978V91H124.358V79.44H120.218V77.4ZM142.938 91H133.418V77.4H141.538L141.938 79.44H135.998V83.1H139.638L140.058 85.16H135.998V88.98H142.518L142.938 91ZM154.826 77.4C156.146 77.4 157.22 77.6933 158.046 78.28C158.873 78.8533 159.286 79.8267 159.286 81.2C159.286 81.7067 159.166 82.1667 158.926 82.58C158.7 82.98 158.4 83.3267 158.026 83.62C158.64 83.94 159.14 84.3733 159.526 84.92C159.926 85.4667 160.126 86.16 160.126 87C160.126 88.2533 159.686 89.2333 158.806 89.94C157.94 90.6467 156.78 91 155.326 91H149.746V77.4H154.826ZM154.446 79.56H152.326V82.94H154.246C154.966 82.94 155.526 82.8067 155.926 82.54C156.34 82.26 156.546 81.8267 156.546 81.24C156.546 80.6 156.36 80.16 155.986 79.92C155.613 79.68 155.1 79.56 154.446 79.56ZM155.306 85.04H152.326V88.86H155.126C155.82 88.86 156.373 88.7 156.786 88.38C157.213 88.06 157.426 87.6067 157.426 87.02C157.426 86.38 157.233 85.8933 156.846 85.56C156.46 85.2133 155.946 85.04 155.306 85.04ZM165.274 77.4V85.86C165.274 86.9933 165.547 87.82 166.094 88.34C166.64 88.8467 167.347 89.1 168.214 89.1C169.094 89.1 169.8 88.8333 170.334 88.3C170.88 87.7667 171.154 86.9533 171.154 85.86V77.4H173.774V86.06C173.774 87.5267 173.267 88.7533 172.254 89.74C171.254 90.7267 169.894 91.22 168.174 91.22C166.48 91.22 165.134 90.7267 164.134 89.74C163.147 88.7533 162.654 87.5267 162.654 86.06V77.4H165.274ZM180.032 91V85.7L175.472 77.74L178.152 77.4L181.312 83.08L184.612 77.4H187.352L182.632 85.8V91H180.032ZM198.661 91H189.141V77.4H197.261L197.661 79.44H191.721V83.1H195.361L195.781 85.16H191.721V88.98H198.241L198.661 91ZM204.923 79.56H203.323V83.72H204.963C205.736 83.72 206.376 83.5667 206.883 83.26C207.389 82.94 207.643 82.42 207.643 81.7C207.643 80.94 207.403 80.3933 206.923 80.06C206.443 79.7267 205.776 79.56 204.923 79.56ZM208.643 91L205.763 85.8C205.616 85.8133 205.463 85.8267 205.303 85.84C205.143 85.84 204.983 85.84 204.823 85.84H203.323V91H200.743V77.4H205.003C206.483 77.4 207.749 77.74 208.803 78.42C209.856 79.1 210.383 80.1533 210.383 81.58C210.383 82.42 210.163 83.1467 209.723 83.76C209.296 84.36 208.743 84.8267 208.063 85.16L211.403 91H208.643ZM55.86 99.56H54.26V103.72H55.9C56.6733 103.72 57.3133 103.567 57.82 103.26C58.3267 102.94 58.58 102.42 58.58 101.7C58.58 100.94 58.34 100.393 57.86 100.06C57.38 99.7267 56.7133 99.56 55.86 99.56ZM59.58 111L56.7 105.8C56.5533 105.813 56.4 105.827 56.24 105.84C56.08 105.84 55.92 105.84 55.76 105.84H54.26V111H51.68V97.4H55.94C57.42 97.4 58.6867 97.74 59.74 98.42C60.7933 99.1 61.32 100.153 61.32 101.58C61.32 102.42 61.1 103.147 60.66 103.76C60.2333 104.36 59.68 104.827 59 105.16L62.34 111H59.58ZM73.7391 111H64.2191V97.4H72.3391L72.7391 99.44H66.7991V103.1H70.4391L70.8591 105.16H66.7991V108.98H73.3191L73.7391 111ZM87.6406 111L84.4206 101.28L81.3206 111H79.0206L74.2606 97.76L76.8206 97.4L80.2006 107.3L83.2606 97.4H85.6806L88.9406 107.28L92.1206 97.4H94.7406L89.9606 111H87.6406ZM101.304 100.96L99.5238 105.7H103.124L101.304 100.96ZM102.464 97.4L107.744 110.64L105.144 111L103.924 107.8H98.7638L97.5638 111H94.9638L100.264 97.4H102.464ZM113.731 99.56H112.131V103.72H113.771C114.544 103.72 115.184 103.567 115.691 103.26C116.198 102.94 116.451 102.42 116.451 101.7C116.451 100.94 116.211 100.393 115.731 100.06C115.251 99.7267 114.584 99.56 113.731 99.56ZM117.451 111L114.571 105.8C114.424 105.813 114.271 105.827 114.111 105.84C113.951 105.84 113.791 105.84 113.631 105.84H112.131V111H109.551V97.4H113.811C115.291 97.4 116.558 97.74 117.611 98.42C118.664 99.1 119.191 100.153 119.191 101.58C119.191 102.42 118.971 103.147 118.531 103.76C118.104 104.36 117.551 104.827 116.871 105.16L120.211 111H117.451ZM127.05 111H122.09V97.4H127.13C129.223 97.4 130.777 98.0333 131.79 99.3C132.803 100.567 133.31 102.173 133.31 104.12C133.31 106.227 132.763 107.9 131.67 109.14C130.577 110.38 129.037 111 127.05 111ZM127.15 99.6H124.67V108.82H127.01C128.103 108.82 128.977 108.46 129.63 107.74C130.297 107.02 130.63 105.813 130.63 104.12C130.63 102.707 130.35 101.6 129.79 100.8C129.23 100 128.35 99.6 127.15 99.6ZM136.133 108C136.546 108.213 137.073 108.427 137.713 108.64C138.353 108.853 138.959 108.96 139.533 108.96C140.346 108.96 140.953 108.833 141.353 108.58C141.766 108.327 141.973 107.96 141.973 107.48C141.973 107.027 141.699 106.627 141.153 106.28C140.619 105.92 140.026 105.573 139.373 105.24C138.413 104.747 137.493 104.173 136.613 103.52C135.746 102.853 135.313 101.92 135.313 100.72C135.313 99.6933 135.719 98.8333 136.533 98.14C137.346 97.4333 138.499 97.08 139.993 97.08C140.673 97.08 141.353 97.1867 142.033 97.4C142.713 97.6133 143.313 97.8467 143.833 98.1L142.973 100.18C142.559 99.98 142.113 99.7933 141.633 99.62C141.153 99.4333 140.619 99.34 140.033 99.34C139.459 99.34 138.973 99.4533 138.573 99.68C138.186 99.9067 137.993 100.253 137.993 100.72C137.993 101.213 138.226 101.627 138.693 101.96C139.173 102.28 139.746 102.607 140.413 102.94L140.553 103.02C141.513 103.513 142.433 104.1 143.313 104.78C144.206 105.447 144.653 106.36 144.653 107.52C144.653 108.6 144.213 109.493 143.333 110.2C142.466 110.907 141.213 111.26 139.573 111.26C138.999 111.26 138.259 111.133 137.353 110.88C136.459 110.627 135.859 110.367 135.553 110.1L136.133 108Z" fill="white"/>
  <mask id="mask0_622_10182" style="mask-type:alpha" maskUnits="userSpaceOnUse" x="19" y="39" width="31" height="31">
    <rect x="19" y="39" width="31" height="31" fill="#D9D9D9"/>
  </mask>
  <g mask="url(#mask0_622_10182)">
    <path d="M31.9167 60.1833L26.75 55.0167L28.5583 53.2083L31.9167 56.5667L40.4417 48.0417L42.25 49.85L31.9167 60.1833Z" fill="white"/>
  </g>
  <mask id="mask1_622_10182" style="mask-type:alpha" maskUnits="userSpaceOnUse" x="19" y="78" width="31" height="31">
    <rect x="19" y="78" width="31" height="31" fill="#D9D9D9"/>
  </mask>
  <g mask="url(#mask1_622_10182)">
    <path d="M31.9167 99.1833L26.75 94.0167L28.5583 92.2083L31.9167 95.5667L40.4417 87.0417L42.25 88.85L31.9167 99.1833Z" fill="white"/>
  </g>
  <mask id="mask2_622_10182" style="mask-type:alpha" maskUnits="userSpaceOnUse" x="19" y="117" width="31" height="31">
    <rect x="19" y="117" width="31" height="31" fill="#D9D9D9"/>
  </mask>
  <g mask="url(#mask2_622_10182)">
    <path d="M31.9167 138.183L26.75 133.017L28.5583 131.208L31.9167 134.567L40.4417 126.042L42.25 127.85L31.9167 138.183Z" fill="white"/>
  </g>
  <path d="M28.408 26L26.49 14.66H27.4L28.898 23.872L30.606 14.828H31.488L33.238 23.886L34.624 14.66H35.52L33.686 26H32.86L31.054 16.648L29.276 26H28.408ZM36.9038 26V17.908H37.9258V26H36.9038ZM36.9038 16.788V15.402H37.9258V16.788H36.9038ZM41.5672 26.098C41.1752 26.098 40.8719 26.0233 40.6572 25.874C40.4519 25.7153 40.3072 25.5053 40.2232 25.244C40.1486 24.9733 40.1112 24.6653 40.1112 24.32V18.58H39.1172V17.908H40.1112V15.402H41.1332V17.908H42.4772V18.58H41.1332V24.222C41.1332 24.614 41.1752 24.894 41.2592 25.062C41.3526 25.2207 41.5486 25.3 41.8472 25.3C41.9312 25.3 42.0246 25.2953 42.1272 25.286C42.2392 25.2673 42.3419 25.2487 42.4352 25.23V26.014C42.2952 26.042 42.1506 26.0607 42.0012 26.07C41.8519 26.0887 41.7072 26.098 41.5672 26.098ZM43.5871 26V14.66H44.6091V18.762C44.8797 18.4727 45.1784 18.2393 45.5051 18.062C45.8317 17.8753 46.1911 17.782 46.5831 17.782C46.8537 17.782 47.0777 17.852 47.2551 17.992C47.4417 18.1227 47.5817 18.3187 47.6751 18.58C47.7777 18.832 47.8291 19.14 47.8291 19.504V26H46.7931V19.728C46.7931 19.308 46.7277 19.014 46.5971 18.846C46.4757 18.6687 46.2844 18.58 46.0231 18.58C45.7897 18.58 45.5471 18.6547 45.2951 18.804C45.0524 18.944 44.8237 19.126 44.6091 19.35V26H43.5871ZM54.118 26.098C53.726 26.098 53.4227 26.0233 53.208 25.874C53.0027 25.7153 52.858 25.5053 52.774 25.244C52.6993 24.9733 52.662 24.6653 52.662 24.32V18.58H51.668V17.908H52.662V15.402H53.684V17.908H55.028V18.58H53.684V24.222C53.684 24.614 53.726 24.894 53.81 25.062C53.9033 25.2207 54.0993 25.3 54.398 25.3C54.482 25.3 54.5753 25.2953 54.678 25.286C54.79 25.2673 54.8927 25.2487 54.986 25.23V26.014C54.846 26.042 54.7013 26.0607 54.552 26.07C54.4027 26.0887 54.258 26.098 54.118 26.098ZM56.1378 26V14.66H57.1598V18.762C57.4305 18.4727 57.7292 18.2393 58.0558 18.062C58.3825 17.8753 58.7418 17.782 59.1338 17.782C59.4045 17.782 59.6285 17.852 59.8058 17.992C59.9925 18.1227 60.1325 18.3187 60.2258 18.58C60.3285 18.832 60.3798 19.14 60.3798 19.504V26H59.3438V19.728C59.3438 19.308 59.2785 19.014 59.1478 18.846C59.0265 18.6687 58.8352 18.58 58.5738 18.58C58.3405 18.58 58.0978 18.6547 57.8458 18.804C57.6032 18.944 57.3745 19.126 57.1598 19.35V26H56.1378ZM63.9234 26.126C63.4194 26.126 63.004 26.028 62.6774 25.832C62.36 25.6267 62.122 25.2907 61.9634 24.824C61.814 24.3573 61.7394 23.7367 61.7394 22.962V20.918C61.7394 20.1153 61.8187 19.49 61.9774 19.042C62.136 18.5847 62.3787 18.2627 62.7054 18.076C63.032 17.88 63.4427 17.782 63.9374 17.782C64.5067 17.782 64.9407 17.9033 65.2394 18.146C65.538 18.3887 65.7434 18.7573 65.8554 19.252C65.9767 19.7373 66.0374 20.3627 66.0374 21.128V21.856H62.7614V23.27C62.7614 23.7927 62.7987 24.208 62.8734 24.516C62.9574 24.8147 63.0834 25.0293 63.2514 25.16C63.4287 25.2907 63.6527 25.356 63.9234 25.356C64.1287 25.356 64.3154 25.3187 64.4834 25.244C64.6514 25.16 64.782 25.006 64.8754 24.782C64.978 24.5487 65.0294 24.222 65.0294 23.802V23.242H66.0234V23.69C66.0234 24.4273 65.8694 25.02 65.5614 25.468C65.2627 25.9067 64.7167 26.126 63.9234 26.126ZM62.7614 21.268H65.0294V20.596C65.0294 20.1667 65.006 19.8027 64.9594 19.504C64.9127 19.196 64.81 18.9627 64.6514 18.804C64.502 18.636 64.2594 18.552 63.9234 18.552C63.6434 18.552 63.4147 18.6127 63.2374 18.734C63.0694 18.8553 62.948 19.0747 62.8734 19.392C62.7987 19.7 62.7614 20.1433 62.7614 20.722V21.268ZM72.7522 26.126C72.4256 26.126 72.1409 26.042 71.8982 25.874C71.6649 25.706 71.4689 25.5333 71.3102 25.356V26H70.2882V14.66H71.3102V18.58C71.4689 18.3747 71.6742 18.1927 71.9262 18.034C72.1782 17.866 72.4862 17.782 72.8502 17.782C73.2422 17.782 73.5596 17.8753 73.8022 18.062C74.0449 18.2393 74.2316 18.482 74.3622 18.79C74.4929 19.098 74.5816 19.4433 74.6282 19.826C74.6749 20.2087 74.6982 20.6007 74.6982 21.002V22.71C74.6982 23.4007 74.6376 24.0027 74.5162 24.516C74.4042 25.02 74.2082 25.4167 73.9282 25.706C73.6482 25.986 73.2562 26.126 72.7522 26.126ZM72.5702 25.314C72.8876 25.314 73.1209 25.216 73.2702 25.02C73.4289 24.824 73.5316 24.5347 73.5782 24.152C73.6342 23.76 73.6622 23.2887 73.6622 22.738V21.002C73.6622 20.4793 73.6342 20.0407 73.5782 19.686C73.5316 19.322 73.4289 19.0467 73.2702 18.86C73.1209 18.6733 72.8829 18.58 72.5562 18.58C72.3042 18.58 72.0662 18.65 71.8422 18.79C71.6276 18.93 71.4502 19.07 71.3102 19.21V24.726C71.4596 24.8847 71.6416 25.0247 71.8562 25.146C72.0709 25.258 72.3089 25.314 72.5702 25.314ZM76.2385 26V14.66H77.2605V26H76.2385ZM80.3285 26.126C80.0019 26.126 79.7172 26.0467 79.4745 25.888C79.2319 25.72 79.0405 25.5007 78.9005 25.23C78.7699 24.95 78.7045 24.6467 78.7045 24.32C78.7045 23.9093 78.7605 23.5593 78.8725 23.27C78.9939 22.9807 79.1805 22.724 79.4325 22.5C79.6939 22.2667 80.0299 22.0427 80.4405 21.828C80.8605 21.604 81.3692 21.3567 81.9665 21.086V20.512C81.9665 20.0173 81.9339 19.63 81.8685 19.35C81.8125 19.0607 81.7099 18.8553 81.5605 18.734C81.4205 18.6127 81.2199 18.552 80.9585 18.552C80.7439 18.552 80.5525 18.594 80.3845 18.678C80.2165 18.762 80.0812 18.9067 79.9785 19.112C79.8759 19.308 79.8245 19.5833 79.8245 19.938V20.218L78.8165 20.204C78.8259 19.3827 78.9985 18.776 79.3345 18.384C79.6799 17.9827 80.2399 17.782 81.0145 17.782C81.7425 17.782 82.2512 18.0013 82.5405 18.44C82.8392 18.8693 82.9885 19.5413 82.9885 20.456V24.39C82.9885 24.53 82.9932 24.712 83.0025 24.936C83.0119 25.1507 83.0212 25.356 83.0305 25.552C83.0399 25.748 83.0492 25.8973 83.0585 26H82.1485C82.1299 25.8227 82.1019 25.6267 82.0645 25.412C82.0272 25.188 82.0039 25.0107 81.9945 24.88C81.8825 25.2067 81.6819 25.496 81.3925 25.748C81.1125 26 80.7579 26.126 80.3285 26.126ZM80.6505 25.258C80.8559 25.258 81.0425 25.2067 81.2105 25.104C81.3785 25.0013 81.5279 24.88 81.6585 24.74C81.7892 24.5907 81.8919 24.4413 81.9665 24.292V21.772C81.5652 21.9773 81.2199 22.164 80.9305 22.332C80.6505 22.5 80.4219 22.6633 80.2445 22.822C80.0672 22.9807 79.9365 23.1627 79.8525 23.368C79.7685 23.564 79.7265 23.7973 79.7265 24.068C79.7265 24.4973 79.8199 24.8053 80.0065 24.992C80.1932 25.1693 80.4079 25.258 80.6505 25.258ZM86.341 26.126C85.697 26.126 85.1837 25.9207 84.801 25.51C84.4183 25.09 84.199 24.53 84.143 23.83L84.997 23.564C85.053 24.1893 85.1977 24.6467 85.431 24.936C85.6643 25.216 85.991 25.356 86.411 25.356C86.7657 25.356 87.0363 25.258 87.223 25.062C87.419 24.8567 87.517 24.572 87.517 24.208C87.517 23.9467 87.4377 23.6853 87.279 23.424C87.1203 23.1533 86.873 22.8733 86.537 22.584L85.431 21.632C85.067 21.324 84.7917 21.016 84.605 20.708C84.4183 20.4 84.325 20.0313 84.325 19.602C84.325 19.21 84.4043 18.8833 84.563 18.622C84.731 18.3513 84.9597 18.146 85.249 18.006C85.5383 17.8567 85.8743 17.782 86.257 17.782C86.873 17.782 87.3397 17.9827 87.657 18.384C87.9743 18.776 88.147 19.2847 88.175 19.91L87.447 20.148C87.4283 19.784 87.3723 19.4853 87.279 19.252C87.1857 19.0093 87.055 18.832 86.887 18.72C86.7283 18.608 86.5323 18.552 86.299 18.552C85.991 18.552 85.739 18.6407 85.543 18.818C85.3563 18.986 85.263 19.224 85.263 19.532C85.263 19.7747 85.3097 19.9893 85.403 20.176C85.4963 20.3627 85.669 20.5727 85.921 20.806L87.069 21.828C87.293 22.024 87.5077 22.234 87.713 22.458C87.9183 22.682 88.0863 22.934 88.217 23.214C88.3477 23.4847 88.413 23.8067 88.413 24.18C88.413 24.6 88.3243 24.9547 88.147 25.244C87.979 25.524 87.741 25.7433 87.433 25.902C87.125 26.0513 86.761 26.126 86.341 26.126ZM91.4969 26.098C91.1049 26.098 90.8016 26.0233 90.5869 25.874C90.3816 25.7153 90.2369 25.5053 90.1529 25.244C90.0783 24.9733 90.0409 24.6653 90.0409 24.32V18.58H89.0469V17.908H90.0409V15.402H91.0629V17.908H92.4069V18.58H91.0629V24.222C91.0629 24.614 91.1049 24.894 91.1889 25.062C91.2823 25.2207 91.4783 25.3 91.7769 25.3C91.8609 25.3 91.9543 25.2953 92.0569 25.286C92.1689 25.2673 92.2716 25.2487 92.3649 25.23V26.014C92.2249 26.042 92.0803 26.0607 91.9309 26.07C91.7816 26.0887 91.6369 26.098 91.4969 26.098ZM98.8382 26.126C98.5115 26.126 98.2268 26.042 97.9842 25.874C97.7508 25.706 97.5548 25.5333 97.3962 25.356V26H96.3742V14.66H97.3962V18.58C97.5548 18.3747 97.7602 18.1927 98.0122 18.034C98.2642 17.866 98.5722 17.782 98.9362 17.782C99.3282 17.782 99.6455 17.8753 99.8882 18.062C100.131 18.2393 100.318 18.482 100.448 18.79C100.579 19.098 100.668 19.4433 100.714 19.826C100.761 20.2087 100.784 20.6007 100.784 21.002V22.71C100.784 23.4007 100.724 24.0027 100.602 24.516C100.49 25.02 100.294 25.4167 100.014 25.706C99.7342 25.986 99.3422 26.126 98.8382 26.126ZM98.6562 25.314C98.9735 25.314 99.2068 25.216 99.3562 25.02C99.5148 24.824 99.6175 24.5347 99.6642 24.152C99.7202 23.76 99.7482 23.2887 99.7482 22.738V21.002C99.7482 20.4793 99.7202 20.0407 99.6642 19.686C99.6175 19.322 99.5148 19.0467 99.3562 18.86C99.2068 18.6733 98.9688 18.58 98.6422 18.58C98.3902 18.58 98.1522 18.65 97.9282 18.79C97.7135 18.93 97.5362 19.07 97.3962 19.21V24.726C97.5455 24.8847 97.7275 25.0247 97.9422 25.146C98.1568 25.258 98.3948 25.314 98.6562 25.314ZM103.584 26.126C103.258 26.126 102.973 26.0467 102.73 25.888C102.488 25.72 102.296 25.5007 102.156 25.23C102.026 24.95 101.96 24.6467 101.96 24.32C101.96 23.9093 102.016 23.5593 102.128 23.27C102.25 22.9807 102.436 22.724 102.688 22.5C102.95 22.2667 103.286 22.0427 103.696 21.828C104.116 21.604 104.625 21.3567 105.222 21.086V20.512C105.222 20.0173 105.19 19.63 105.124 19.35C105.068 19.0607 104.966 18.8553 104.816 18.734C104.676 18.6127 104.476 18.552 104.214 18.552C104 18.552 103.808 18.594 103.64 18.678C103.472 18.762 103.337 18.9067 103.234 19.112C103.132 19.308 103.08 19.5833 103.08 19.938V20.218L102.072 20.204C102.082 19.3827 102.254 18.776 102.59 18.384C102.936 17.9827 103.496 17.782 104.27 17.782C104.998 17.782 105.507 18.0013 105.796 18.44C106.095 18.8693 106.244 19.5413 106.244 20.456V24.39C106.244 24.53 106.249 24.712 106.258 24.936C106.268 25.1507 106.277 25.356 106.286 25.552C106.296 25.748 106.305 25.8973 106.314 26H105.404C105.386 25.8227 105.358 25.6267 105.32 25.412C105.283 25.188 105.26 25.0107 105.25 24.88C105.138 25.2067 104.938 25.496 104.648 25.748C104.368 26 104.014 26.126 103.584 26.126ZM103.906 25.258C104.112 25.258 104.298 25.2067 104.466 25.104C104.634 25.0013 104.784 24.88 104.914 24.74C105.045 24.5907 105.148 24.4413 105.222 24.292V21.772C104.821 21.9773 104.476 22.164 104.186 22.332C103.906 22.5 103.678 22.6633 103.5 22.822C103.323 22.9807 103.192 23.1627 103.108 23.368C103.024 23.564 102.982 23.7973 102.982 24.068C102.982 24.4973 103.076 24.8053 103.262 24.992C103.449 25.1693 103.664 25.258 103.906 25.258ZM107.889 26V14.66H108.911V26H107.889ZM111.769 26.126C111.498 26.126 111.27 26.056 111.083 25.916C110.896 25.776 110.752 25.58 110.649 25.328C110.556 25.076 110.509 24.768 110.509 24.404V17.908H111.545V24.18C111.545 24.6 111.606 24.894 111.727 25.062C111.858 25.23 112.054 25.314 112.315 25.314C112.558 25.314 112.8 25.2393 113.043 25.09C113.295 24.9407 113.528 24.7493 113.743 24.516V17.908H114.765V26H113.743V25.104C113.482 25.4027 113.183 25.65 112.847 25.846C112.511 26.0327 112.152 26.126 111.769 26.126ZM116.348 26V17.908H117.37V18.748C117.632 18.468 117.926 18.2393 118.252 18.062C118.579 17.8753 118.934 17.782 119.316 17.782C119.587 17.782 119.816 17.852 120.002 17.992C120.189 18.1227 120.329 18.3187 120.422 18.58C120.516 18.832 120.562 19.14 120.562 19.504V26H119.54V19.728C119.54 19.308 119.475 19.014 119.344 18.846C119.223 18.6687 119.032 18.58 118.77 18.58C118.537 18.58 118.299 18.65 118.056 18.79C117.814 18.93 117.585 19.112 117.37 19.336V26H116.348Z" fill="#DFFF00"/>
</svg>
