<svg width="545" height="382" viewBox="0 0 545 382" fill="none"
  xmlns="http://www.w3.org/2000/svg">
  <path d="M100 39L18 121L17 366.5H52.5L73 347L388 346L408 365.5H523.5V66.5L471.5 17H366L344 39H100Z" fill="#979000" fill-opacity="0.7"/>
  <path d="M97.5 17L109 5.5H288L276.5 17H97.5Z" fill="#DFFF00"/>
  <path d="M313 5.5H301.5L290.5 17H301.5L313 5.5Z" fill="#DFFF00"/>
  <path d="M340.5 5.5H324L313 17H329L340.5 5.5Z" fill="#DFFF00"/>
  <path d="M542.5 95.5V63.5L482 3H357L332.5 27.5H91.5L3 117.5V153M542.5 338V379H400.5L379.5 358H82L61 379H3V339M109 5.5L97.5 17H276.5L288 5.5H109ZM301.5 5.5H313L301.5 17H290.5L301.5 5.5ZM324 5.5H340.5L329 17H313L324 5.5Z" stroke="#DFFF00" stroke-width="5"/>
  <path d="M517.5 154.5L524 148V278.5L517.5 272V154.5Z" fill="#DFFF00"/>
  <path d="M147.5 336.5L137.5 346.5H326L316 336.5H147.5Z" fill="#DFFF00"/>
  <path d="M30 155L17.5 142.5V284.5L30 272V155Z" fill="#DFFF00"/>
  <path d="M283.5 54L297.5 40H145.5L159.5 54H283.5Z" fill="#DFFF00"/>
  <path d="M524 148V67L472.5 18.5H366.5L345 40M524 148L517.5 154.5V272L524 278.5V148ZM524 365.5H407.5L388.5 346.5H326M326 346.5H137.5L147.5 336.5H316L326 346.5ZM73 346.5L53 366.5H17.5V284.5M17.5 284.5V142.5L30 155V272L17.5 284.5ZM17.5 121.5L99 40H145.5M145.5 40H297.5L283.5 54H159.5L145.5 40Z" stroke="#DFFF00" stroke-width="3"/>
  <path d="M297 40H344.5" stroke="#DFFF00" stroke-width="3"/>
  <path d="M71.5 347H140.5M524.5 277.5V366.5M18 142V120.5" stroke="#DFFF00" stroke-width="3"/>
</svg>
