<svg width="42" height="42" viewBox="0 0 42 42" fill="none" xmlns="http://www.w3.org/2000/svg">
<path d="M32.8178 8.85938L22.5752 16.4667L24.4693 11.9785L32.8178 8.85938Z" fill="#E2761B" stroke="#E2761B" stroke-linecap="round" stroke-linejoin="round"/>
<path d="M9.17188 8.85938L19.3322 16.5388L17.5307 11.9785L9.17188 8.85938Z" fill="#E4761B" stroke="#E4761B" stroke-linecap="round" stroke-linejoin="round"/>
<path d="M29.1322 26.4932L26.4043 30.6726L32.2411 32.2785L33.919 26.5858L29.1322 26.4932Z" fill="#E4761B" stroke="#E4761B" stroke-linecap="round" stroke-linejoin="round"/>
<path d="M8.09082 26.5858L9.75847 32.2785L15.5952 30.6726L12.8673 26.4932L8.09082 26.5858Z" fill="#E4761B" stroke="#E4761B" stroke-linecap="round" stroke-linejoin="round"/>
<path d="M15.2661 19.4314L13.6396 21.8917L19.4352 22.1491L19.2294 15.9211L15.2661 19.4314Z" fill="#E4761B" stroke="#E4761B" stroke-linecap="round" stroke-linejoin="round"/>
<path d="M26.7227 19.4314L22.708 15.8491L22.5742 22.1491L28.3595 21.8917L26.7227 19.4314Z" fill="#E4761B" stroke="#E4761B" stroke-linecap="round" stroke-linejoin="round"/>
<path d="M15.5957 30.6726L19.0751 28.9741L16.0692 26.627L15.5957 30.6726Z" fill="#E4761B" stroke="#E4761B" stroke-linecap="round" stroke-linejoin="round"/>
<path d="M22.9141 28.9741L26.4038 30.6726L25.9199 26.627L22.9141 28.9741Z" fill="#E4761B" stroke="#E4761B" stroke-linecap="round" stroke-linejoin="round"/>
<path d="M26.4047 30.6726L22.915 28.9741L23.193 31.2491L23.1621 32.2064L26.4047 30.6726Z" fill="#D7C1B3" stroke="#D7C1B3" stroke-linecap="round" stroke-linejoin="round"/>
<path d="M15.5957 30.6726L18.8384 32.2064L18.8178 31.2491L19.0751 28.9741L15.5957 30.6726Z" fill="#D7C1B3" stroke="#D7C1B3" stroke-linecap="round" stroke-linejoin="round"/>
<path d="M18.8893 25.1241L15.9863 24.2697L18.0349 23.3329L18.8893 25.1241Z" fill="#233447" stroke="#233447" stroke-linecap="round" stroke-linejoin="round"/>
<path d="M23.0996 25.1241L23.954 23.3329L26.0128 24.2697L23.0996 25.1241Z" fill="#233447" stroke="#233447" stroke-linecap="round" stroke-linejoin="round"/>
<path d="M15.5951 30.6726L16.0892 26.4932L12.8672 26.5858L15.5951 30.6726Z" fill="#CD6116" stroke="#CD6116" stroke-linecap="round" stroke-linejoin="round"/>
<path d="M25.9102 26.4932L26.4043 30.6726L29.1322 26.5858L25.9102 26.4932Z" fill="#CD6116" stroke="#CD6116" stroke-linecap="round" stroke-linejoin="round"/>
<path d="M28.3595 21.8917L22.5742 22.1491L23.1095 25.1241L23.9639 23.3329L26.0227 24.2697L28.3595 21.8917Z" fill="#CD6116" stroke="#CD6116" stroke-linecap="round" stroke-linejoin="round"/>
<path d="M15.9867 24.2697L18.0455 23.3329L18.8896 25.1241L19.4352 22.1491L13.6396 21.8917L15.9867 24.2697Z" fill="#CD6116" stroke="#CD6116" stroke-linecap="round" stroke-linejoin="round"/>
<path d="M13.6396 21.8917L16.0691 26.627L15.9867 24.2697L13.6396 21.8917Z" fill="#E4751F" stroke="#E4751F" stroke-linecap="round" stroke-linejoin="round"/>
<path d="M26.0238 24.2697L25.9209 26.627L28.3606 21.8917L26.0238 24.2697Z" fill="#E4751F" stroke="#E4751F" stroke-linecap="round" stroke-linejoin="round"/>
<path d="M19.4352 22.1491L18.8896 25.1241L19.5691 28.6344L19.7235 24.0123L19.4352 22.1491Z" fill="#E4751F" stroke="#E4751F" stroke-linecap="round" stroke-linejoin="round"/>
<path d="M22.5748 22.1491L22.2969 24.002L22.4204 28.6344L23.1101 25.1241L22.5748 22.1491Z" fill="#E4751F" stroke="#E4751F" stroke-linecap="round" stroke-linejoin="round"/>
<path d="M23.1106 25.1241L22.4209 28.6344L22.915 28.9741L25.9209 26.627L26.0238 24.2697L23.1106 25.1241Z" fill="#F6851B" stroke="#F6851B" stroke-linecap="round" stroke-linejoin="round"/>
<path d="M15.9863 24.2697L16.0687 26.627L19.0746 28.9741L19.5687 28.6344L18.8893 25.1241L15.9863 24.2697Z" fill="#F6851B" stroke="#F6851B" stroke-linecap="round" stroke-linejoin="round"/>
<path d="M23.1619 32.2064L23.1928 31.2491L22.9354 31.0226H19.0545L18.8178 31.2491L18.8384 32.2064L15.5957 30.6726L16.7281 31.5991L19.0236 33.1947H22.9663L25.2722 31.5991L26.4045 30.6726L23.1619 32.2064Z" fill="#C0AD9E" stroke="#C0AD9E" stroke-linecap="round" stroke-linejoin="round"/>
<path d="M22.9144 28.9741L22.4203 28.6344H19.5689L19.0747 28.9741L18.8174 31.2491L19.0541 31.0226H22.935L23.1924 31.2491L22.9144 28.9741Z" fill="#161616" stroke="#161616" stroke-linecap="round" stroke-linejoin="round"/>
<path d="M33.2503 16.9608L34.1253 12.7608L32.818 8.85938L22.915 16.2094L26.7239 19.4314L32.1077 21.0064L33.3018 19.6167L32.7871 19.2461L33.6106 18.4947L32.9724 18.0006L33.7959 17.3726L33.2503 16.9608Z" fill="#763D16" stroke="#763D16" stroke-linecap="round" stroke-linejoin="round"/>
<path d="M7.875 12.7608L8.75 16.9608L8.19412 17.3726L9.01765 18.0006L8.38971 18.4947L9.21324 19.2461L8.69853 19.6167L9.88235 21.0064L15.2662 19.4314L19.075 16.2094L9.17206 8.85938L7.875 12.7608Z" fill="#763D16" stroke="#763D16" stroke-linecap="round" stroke-linejoin="round"/>
<path d="M32.1077 21.0064L26.7238 19.4314L28.3606 21.8917L25.9209 26.627L29.1327 26.5859H33.9194L32.1077 21.0064Z" fill="#F6851B" stroke="#F6851B" stroke-linecap="round" stroke-linejoin="round"/>
<path d="M15.2658 19.4314L9.882 21.0064L8.09082 26.5859H12.8673L16.0688 26.627L13.6393 21.8917L15.2658 19.4314Z" fill="#F6851B" stroke="#F6851B" stroke-linecap="round" stroke-linejoin="round"/>
<path d="M22.5754 22.1491L22.9151 16.2094L24.4798 11.9785H17.5312L19.0754 16.2094L19.4357 22.1491L19.5592 24.0226L19.5695 28.6344H22.421L22.4415 24.0226L22.5754 22.1491Z" fill="#F6851B" stroke="#F6851B" stroke-linecap="round" stroke-linejoin="round"/>
</svg>
