<svg width="56" height="56" viewBox="0 0 56 56" fill="none" xmlns="http://www.w3.org/2000/svg">
<path d="M17.7949 21.6234C23.4277 16.1219 32.5715 16.1219 38.2043 21.6234L38.8824 22.2906C39.1668 22.5641 39.1668 23.0125 38.8824 23.2859L36.5637 25.55C36.4215 25.6922 36.1918 25.6922 36.0496 25.55L35.1199 24.6422C31.1824 20.8031 24.8168 20.8031 20.8793 24.6422L19.884 25.6156C19.7418 25.7578 19.5121 25.7578 19.3699 25.6156L17.0512 23.3516C16.7668 23.0781 16.7668 22.6297 17.0512 22.3562L17.7949 21.6234ZM43.0059 26.3047L45.073 28.3172C45.3574 28.5906 45.3574 29.0391 45.073 29.3125L35.7652 38.4016C35.4809 38.675 35.0215 38.675 34.7481 38.4016L28.1418 31.9484C28.0762 31.8828 27.9559 31.8828 27.8902 31.9484L21.284 38.4016C20.9996 38.675 20.5402 38.675 20.2668 38.4016L10.9262 29.3125C10.6418 29.0391 10.6418 28.5906 10.9262 28.3172L12.9934 26.3047C13.2777 26.0312 13.7371 26.0312 14.0105 26.3047L20.6168 32.7578C20.6824 32.8234 20.8027 32.8234 20.8684 32.7578L27.4746 26.3047C27.759 26.0312 28.2184 26.0312 28.4918 26.3047L35.098 32.7578C35.1637 32.8234 35.284 32.8234 35.3496 32.7578L41.9559 26.3047C42.2621 26.0312 42.7215 26.0312 43.0059 26.3047Z" fill="#3D99FB"/>
</svg>
